<svg xmlns="http://www.w3.org/2000/svg" viewBox="0 0 512 512" width="100%" height="100%">
  <defs>
    <!-- Background Gradient -->
    <linearGradient id="grad" x1="0%" y1="0%" x2="100%" y2="100%">
      <stop offset="0%" stop-color="#FF9F43" />
      <stop offset="100%" stop-color="#FF5252" />
    </linearGradient>
    <!-- Shadow Effect -->
    <filter id="shadow" x="-10%" y="-10%" width="120%" height="120%">
      <feDropShadow dx="0" dy="6" stdDeviation="6" flood-color="#000000" flood-opacity="0.15"/>
    </filter>
  </defs>
  
  <!-- Outer circle with modern gradient -->
  <circle cx="256" cy="256" r="240" fill="url(#grad)" />
  
  <!-- Minimalist Chicken Head -->
  <g filter="url(#shadow)">
    <!-- Red Comb (Crest) -->
    <path d="M 230 110 C 210 110 195 130 205 150 C 220 145 235 155 230 170 C 250 155 275 160 270 185 C 290 170 315 180 310 205 C 330 195 345 210 340 230 C 335 240 310 250 290 240 C 290 200 250 160 230 110 Z" fill="#E84118" />
    
    <!-- White Body / Neck -->
    <path d="M 180 380 C 180 280 240 230 290 230 C 340 230 350 280 350 380 C 350 390 330 400 265 400 C 200 400 180 390 180 380 Z" fill="#FFFFFF" />
    
    <!-- Red Wattles -->
    <path d="M 315 285 C 315 315 335 315 335 285 C 335 275 315 275 315 285 Z" fill="#FF5252" />
    <path d="M 328 290 C 328 320 345 320 345 290 C 345 280 328 280 328 290 Z" fill="#E84118" />

    <!-- Yellow Beak -->
    <path d="M 310 250 L 365 268 L 320 285 Z" fill="#FEC20C" />
    
    <!-- Eye -->
    <circle cx="270" cy="245" r="14" fill="#2F3640" />
    <circle cx="274" cy="241" r="5" fill="#FFFFFF" />
  </g>
</svg>
